<svg width="19" height="24" viewBox="0 0 19 24" fill="none" xmlns="http://www.w3.org/2000/svg">
<path d="M3.85052 18.5285C3.70459 18.3109 3.57696 18.0176 3.47331 17.6666C1.60219 15.5565 3.04765 12.4512 4.47741 10.3426C4.61448 10.1172 4.76378 9.8994 4.92612 9.69106C6.01698 8.33572 6.29916 7.39253 6.38313 6.1165C6.39314 5.87892 6.37346 5.56449 6.35087 5.20312C6.23546 3.35831 6.04365 0.293179 9.33522 0.0214358C13.4497 -0.318284 13.1145 3.46003 13.0841 5.67524C13.0828 5.76689 13.0816 5.8561 13.0807 5.94216C13.0696 7.27747 13.7664 8.19178 14.4938 9.14604C14.7595 9.4946 15.0292 9.8484 15.27 10.23C15.2771 10.2413 15.2842 10.2527 15.2914 10.264C16.5625 12.0973 17.8174 14.8333 16.0707 17.4283C15.8252 18.3141 15.4535 19.1271 14.9572 19.7887C13.1757 22.1331 11.5922 21.895 10.3555 21.7092C9.9825 21.6532 9.64104 21.6018 9.33522 21.6275C8.82723 21.6585 8.42009 21.7406 8.06839 21.8117C6.70898 22.086 6.1777 22.1933 3.85052 18.5285Z" fill="black"/>
<path fill-rule="evenodd" clip-rule="evenodd" d="M9.16009 4.72922C9.17116 5.31966 9.44157 5.82311 9.82134 6.05055C8.58235 5.93957 7.04708 6.39247 7.04708 7.24972C7.02798 8.69974 6.22093 10.5039 5.63992 11.8025C5.52556 12.0584 5.41993 12.2946 5.33072 12.5045C4.9711 13.3951 4.7553 14.3476 4.7298 15.2817C3.77729 13.9688 4.4694 12.2844 4.84253 11.5534C5.33911 10.5915 5.32956 10.4714 5.1367 10.6969C4.39731 11.9542 3.00494 14.4796 4.74855 15.9966C4.80387 16.6741 4.96889 17.3304 5.26213 17.9338C7.5963 22.6419 11.9673 20.708 13.4091 18.2668C13.6009 17.9196 13.756 17.5839 13.8791 17.2594C13.9513 17.3048 14.0286 17.34 14.1108 17.3632C14.8356 17.5772 15.9187 16.7608 16.1781 16.2536C16.4909 15.5798 16.1705 15.1201 15.1026 14.5732C15.0481 14.5463 14.9943 14.5209 14.9412 14.4973C15.3508 12.7726 14.2221 10.9792 13.4159 10.2184C13.2656 10.1812 13.2444 10.2664 13.4778 10.4992C13.9854 10.9858 15.0897 12.7205 14.4922 14.3349C14.3938 14.3085 14.2992 14.2898 14.2089 14.2796C14.0254 13.1781 13.536 12.3212 13.194 11.7224C13.1165 11.5867 13.0466 11.4643 12.9895 11.3553C12.8744 11.1353 12.7368 10.9076 12.5907 10.666C12.0281 9.73517 11.3418 8.59959 11.3418 6.91677C11.2558 6.54655 10.9064 6.29966 10.4414 6.16329C10.9811 6.0544 11.3863 5.42378 11.3723 4.66587C11.3571 3.84944 10.8459 3.19951 10.2357 3.21537C9.62546 3.23122 9.13727 3.91285 9.16009 4.72922ZM9.66354 4.91148C9.65597 5.36333 9.86956 5.72785 10.1518 5.72785C10.4265 5.72785 10.6629 5.36334 10.6706 4.9194C10.6781 4.46767 10.4645 4.10307 10.1824 4.10307C9.90007 4.10307 9.67123 4.46767 9.66354 4.91148Z" fill="url(#paint0_linear_10639_78672)"/>
<path fill-rule="evenodd" clip-rule="evenodd" d="M7.6344 5.99745C8.07682 5.97369 8.3972 5.37929 8.35912 4.6739C8.32092 3.96844 7.93195 3.42156 7.48941 3.44533C7.04699 3.46911 6.72661 4.06356 6.76481 4.76893C6.80289 5.47432 7.19198 6.0212 7.6344 5.99745ZM7.90132 4.91951C7.93952 5.29206 7.80222 5.60906 7.60389 5.64085C7.40556 5.66461 7.2148 5.38721 7.17672 5.01466C7.13852 4.64215 7.27583 4.32511 7.47415 4.29341C7.67248 4.26963 7.86324 4.54703 7.90132 4.91951Z" fill="url(#paint1_linear_10639_78672)"/>
<path d="M9.77783 4.6579C9.75489 4.91151 9.86937 5.11764 10.0295 5.13348C10.1897 5.14932 10.3423 4.95111 10.3651 4.7055C10.3881 4.45182 10.2736 4.24574 10.1135 4.22989C9.95322 4.21404 9.80066 4.4122 9.77783 4.6579Z" fill="url(#paint2_linear_10639_78672)"/>
<path d="M7.73413 4.72145C7.75696 4.92758 7.67311 5.10983 7.55106 5.12567C7.42901 5.14151 7.31454 4.98301 7.29159 4.76908C7.26877 4.56296 7.35262 4.38067 7.47478 4.36482C7.59683 4.34897 7.71119 4.51541 7.73413 4.72145Z" fill="url(#paint3_linear_10639_78672)"/>
<path d="M12.4248 12.9881C12.4248 14.3831 11.1356 16.1903 8.92347 16.1744C6.64253 16.1903 5.67383 14.3831 5.67383 12.9881C5.67383 11.5932 7.18417 10.4597 9.04552 10.4597C10.9144 10.4678 12.4248 11.5932 12.4248 12.9881Z" fill="url(#paint4_linear_10639_78672)"/>
<path d="M11.2203 8.60539C11.1975 10.048 10.2897 10.3887 9.14537 10.3887C8.00117 10.3887 7.16966 10.1747 7.07056 8.60539C7.07056 7.6226 8.00117 7.05184 9.14537 7.05184C10.2897 7.04392 11.2203 7.61468 11.2203 8.60539Z" fill="url(#paint5_linear_10639_78672)"/>
<path d="M3.73691 22.2459C2.02818 21.3027 -0.450999 22.4281 0.449128 19.876C0.632211 19.2974 0.182137 18.4256 0.472012 17.8628C0.815284 17.1732 1.55522 17.3238 1.99766 16.8641C2.43247 16.3886 2.70707 15.5643 3.52333 15.6911C4.3319 15.8179 4.87354 16.8483 5.43801 18.1164C5.85761 19.02 7.33744 20.296 7.23822 21.3106C7.11617 22.8641 5.41507 23.1573 3.73691 22.2459Z" fill="url(#paint6_linear_10639_78672)"/>
<path fill-rule="evenodd" clip-rule="evenodd" d="M2.1855 17.05C1.76998 17.5045 1.0068 17.3955 0.700517 17.9901C0.503808 18.372 0.718732 18.9589 0.74773 19.3771C0.783553 19.8939 0.355231 20.6259 0.573357 21.0672C0.818326 21.5627 1.925 21.4984 2.4115 21.5696C3.61241 21.745 5.59732 23.2992 6.68329 22.0588C7.74492 20.8463 5.70435 19.3117 5.20381 18.2338C4.87831 17.5024 4.39116 16.1004 3.48442 15.9579C2.84518 15.8587 2.55404 16.6469 2.1855 17.05ZM3.56163 15.4244C4.6907 15.6016 5.25563 17.0652 5.67232 18.0012C6.3048 19.3585 8.47197 20.8175 7.06737 22.4218C5.79169 23.8789 3.77766 22.3139 2.33918 22.1038C1.6207 21.9987 0.48747 22.0742 0.11152 21.3136C-0.211709 20.6598 0.275073 20.0676 0.229888 19.4159C0.191387 18.8607 -0.0283583 18.2644 0.241883 17.7373C0.611835 16.9965 1.32604 17.1759 1.81146 16.6759C2.32694 16.1095 2.63591 15.2806 3.56163 15.4244Z" fill="#E68C3F"/>
<path d="M15.5837 21.8101C16.8347 20.2329 19.619 20.5579 17.7425 18.3941C17.3458 17.9265 17.4679 16.9277 16.9797 16.4998C16.4075 15.9766 15.7743 16.4046 15.1946 16.1351C14.6149 15.8419 14.0046 15.2792 13.2952 15.6755C12.5857 16.0797 12.5094 17.126 12.4408 18.5051C12.3798 19.4958 11.5102 21.1523 11.9755 22.0638C12.6469 23.4746 14.3937 23.2844 15.5837 21.8101Z" fill="url(#paint7_linear_10639_78672)"/>
<path fill-rule="evenodd" clip-rule="evenodd" d="M16.0825 15.9526C16.4033 15.9441 16.7875 15.9666 17.1482 16.2954C17.597 16.691 17.6014 17.3367 17.7706 17.8774C17.9709 18.5177 18.673 18.8835 18.631 19.6344C18.5624 20.8618 16.4367 21.1575 15.7824 21.9825C15.1537 22.7613 14.359 23.2251 13.6048 23.2876C12.461 23.3824 11.5163 22.4207 11.5832 21.2465C11.6374 20.2958 12.1217 19.4323 12.1807 18.4893C12.2147 17.8064 12.2514 17.1733 12.3749 16.6593C12.4996 16.1398 12.7243 15.6925 13.1695 15.4388C14.1442 14.8943 15.0859 15.9787 16.0825 15.9526ZM13.4182 15.9125C13.1543 16.0631 12.9865 16.3409 12.8787 16.7898C12.7695 17.2443 12.7337 17.8266 12.699 18.5222C12.6407 19.4673 12.1556 20.3303 12.1015 21.2784C12.0533 22.1237 12.7027 22.8212 13.5635 22.7498C14.1478 22.7014 14.8219 22.3324 15.3831 21.6375C15.8846 21.0059 18.067 20.4193 18.1126 19.6031C18.1424 19.0702 17.4414 18.5703 17.2767 18.0443C17.1479 17.6327 17.1411 16.9949 16.8113 16.7058C16.6005 16.5131 16.3788 16.4845 16.0956 16.4919C15.2749 16.5134 14.1801 15.488 13.4182 15.9125Z" fill="#E68C3F"/>
<path d="M15.0411 19.7017C16.9786 16.7294 15.5368 16.7532 15.0486 16.5233C14.5605 16.2856 14.0494 15.8179 13.4773 16.1429C12.9051 16.4758 12.8746 17.3317 12.8594 18.4573C12.8365 19.2658 12.1881 20.6211 12.5772 21.374C13.0501 22.2538 14.1943 20.9777 15.0411 19.7017Z" fill="url(#paint8_linear_10639_78672)"/>
<path d="M3.34031 20.1295C0.441541 18.1798 1.79936 17.514 2.23418 17.2048C2.76058 16.8085 2.76815 16.0477 3.41659 16.1189C4.06491 16.1903 4.44631 17.0225 4.88116 18.053C5.20154 18.79 6.31535 19.7728 6.23138 20.6209C6.12459 21.6196 4.5913 20.9617 3.34031 20.1295Z" fill="url(#paint9_linear_10639_78672)"/>
<path d="M16.0107 16.2298C15.7818 16.642 14.8512 17.2918 14.2333 17.1175C13.6002 16.9511 13.3104 16.0237 13.44 15.3262C13.5545 14.5336 14.2333 14.494 15.0878 14.8903C15.9954 15.3183 16.2777 15.683 16.0107 16.2298Z" fill="black"/>
<path d="M15.3851 16.0001C15.2401 16.2854 14.6299 16.7372 14.2027 16.6183C13.7755 16.4994 13.562 15.8575 13.6306 15.3739C13.6916 14.827 14.1493 14.7954 14.7291 15.0648C15.3546 15.366 15.5529 15.6197 15.3851 16.0001Z" fill="url(#paint10_linear_10639_78672)"/>
<path d="M7.4968 5.65721C7.80192 5.36385 8.54189 4.46827 9.94544 5.40356C10.2048 5.5779 10.4184 5.59374 10.9143 5.81571C11.9136 6.24369 11.4405 7.27399 10.3726 7.62279C9.91493 7.77337 9.50302 8.35193 8.67919 8.2965C7.96973 8.2569 7.78666 7.77337 7.35181 7.5118C6.58144 7.06006 6.46696 6.44971 6.88656 6.12479C7.30604 5.79987 7.46628 5.68097 7.4968 5.65721Z" fill="url(#paint11_linear_10639_78672)"/>
<path fill-rule="evenodd" clip-rule="evenodd" d="M6.97975 6.25424C6.82021 6.3778 6.76943 6.54201 6.82219 6.72368C6.93049 7.09682 7.71146 7.61005 8.01052 7.86113C8.18055 8.00391 8.37504 8.1171 8.68936 8.13469C9.36248 8.17999 9.73631 7.6621 10.3261 7.46808C10.7139 7.34138 11.5345 6.85738 11.2627 6.30269C11.0307 5.82929 10.2493 5.80006 9.86116 5.53919C9.19316 5.0942 8.70683 5.09735 8.36036 5.22219C7.98071 5.35903 7.32354 5.9879 6.97975 6.25424ZM8.25823 4.91637C8.70892 4.75403 9.29482 4.77732 10.0301 5.26726C10.5134 5.59218 11.2488 5.56085 11.5402 6.15584C11.9116 6.91363 11.0118 7.58338 10.4196 7.77681C9.78546 7.98562 9.4312 8.50864 8.67003 8.45774C8.27535 8.4355 8.02217 8.28702 7.81476 8.11291C7.38445 7.75166 6.6574 7.40834 6.49121 6.83548C6.39898 6.51779 6.53349 6.19613 6.79354 5.99466C7.21383 5.66916 7.7818 5.08815 8.25823 4.91637Z" fill="#E68C3F"/>
<path fill-rule="evenodd" clip-rule="evenodd" d="M11.0339 6.48341C11.0371 6.54292 10.9932 6.59382 10.936 6.59696C10.1286 6.64273 9.56122 7.56414 8.64947 7.56414C8.13927 7.56414 7.73539 7.31795 7.44658 7.08119C7.38846 7.03356 6.875 6.63772 6.875 6.53687C6.875 6.47724 6.92147 6.42891 6.97888 6.42891C7.08614 6.42891 7.40978 6.78015 7.53019 6.8789C7.80224 7.10192 8.20611 7.34835 8.64947 7.34835C9.55214 7.34835 10.1059 6.42798 10.9246 6.38151C10.9819 6.37825 11.0308 6.4239 11.0339 6.48341Z" fill="#E68C3F"/>
<path d="M7.97059 5.57768C8.12315 5.43502 8.60366 5.04663 9.23684 5.44294C9.37415 5.52213 9.51145 5.60936 9.70978 5.72826C10.1141 5.97399 9.91579 6.33058 9.42748 6.55255C9.20633 6.64769 8.84019 6.85371 8.56558 6.83787C8.26046 6.80619 8.05444 6.60006 7.85612 6.46532C7.48229 6.21179 7.50523 5.99774 7.68061 5.83132C7.81035 5.7045 7.95534 5.5856 7.97059 5.57768Z" fill="url(#paint12_linear_10639_78672)"/>
<defs>
<linearGradient id="paint0_linear_10639_78672" x1="5.70246" y1="19.416" x2="3.78556" y2="13.1267" gradientUnits="userSpaceOnUse">
<stop stop-color="#FFEED7"/>
<stop offset="1" stop-color="#BDBFC2"/>
</linearGradient>
<linearGradient id="paint1_linear_10639_78672" x1="5.70236" y1="19.4161" x2="3.78546" y2="13.1268" gradientUnits="userSpaceOnUse">
<stop stop-color="#FFEED7"/>
<stop offset="1" stop-color="#BDBFC2"/>
</linearGradient>
<linearGradient id="paint2_linear_10639_78672" x1="10.0946" y1="4.25709" x2="9.98594" y2="5.07083" gradientUnits="userSpaceOnUse">
<stop stop-color="white" stop-opacity="0.65"/>
<stop offset="1" stop-color="white" stop-opacity="0"/>
</linearGradient>
<linearGradient id="paint3_linear_10639_78672" x1="7.49307" y1="4.40554" x2="7.60999" y2="5.06395" gradientUnits="userSpaceOnUse">
<stop stop-color="white" stop-opacity="0.65"/>
<stop offset="1" stop-color="white" stop-opacity="0"/>
</linearGradient>
<linearGradient id="paint4_linear_10639_78672" x1="9.03853" y1="11.2158" x2="9.05798" y2="15.8701" gradientUnits="userSpaceOnUse">
<stop stop-color="white" stop-opacity="0.8"/>
<stop offset="1" stop-color="white" stop-opacity="0"/>
</linearGradient>
<linearGradient id="paint5_linear_10639_78672" x1="9.14246" y1="8.29736" x2="9.16389" y2="10.148" gradientUnits="userSpaceOnUse">
<stop stop-color="white" stop-opacity="0.65"/>
<stop offset="1" stop-color="white" stop-opacity="0"/>
</linearGradient>
<linearGradient id="paint6_linear_10639_78672" x1="3.99277" y1="19.1426" x2="2.95257" y2="22.6177" gradientUnits="userSpaceOnUse">
<stop stop-color="#FFA63F"/>
<stop offset="1" stop-color="#FFFF00"/>
</linearGradient>
<linearGradient id="paint7_linear_10639_78672" x1="13.8375" y1="18.086" x2="16.6134" y2="21.871" gradientUnits="userSpaceOnUse">
<stop stop-color="#FFA63F"/>
<stop offset="1" stop-color="#FFFF00"/>
</linearGradient>
<linearGradient id="paint8_linear_10639_78672" x1="14.5801" y1="15.0619" x2="13.6095" y2="19.6354" gradientUnits="userSpaceOnUse">
<stop stop-color="white" stop-opacity="0.65"/>
<stop offset="1" stop-color="white" stop-opacity="0"/>
</linearGradient>
<linearGradient id="paint9_linear_10639_78672" x1="3.78075" y1="16.1927" x2="3.97326" y2="21.3397" gradientUnits="userSpaceOnUse">
<stop stop-color="white" stop-opacity="0.65"/>
<stop offset="1" stop-color="white" stop-opacity="0"/>
</linearGradient>
<linearGradient id="paint10_linear_10639_78672" x1="14.4123" y1="14.9784" x2="14.6374" y2="16.5164" gradientUnits="userSpaceOnUse">
<stop stop-color="white" stop-opacity="0.65"/>
<stop offset="1" stop-color="white" stop-opacity="0"/>
</linearGradient>
<linearGradient id="paint11_linear_10639_78672" x1="9.04219" y1="5.5715" x2="9.06094" y2="8.28008" gradientUnits="userSpaceOnUse">
<stop stop-color="#FFA63F"/>
<stop offset="1" stop-color="#FFFF00"/>
</linearGradient>
<linearGradient id="paint12_linear_10639_78672" x1="8.74667" y1="5.31507" x2="8.74155" y2="6.74727" gradientUnits="userSpaceOnUse">
<stop stop-color="white" stop-opacity="0.65"/>
<stop offset="1" stop-color="white" stop-opacity="0"/>
</linearGradient>
</defs>
</svg>
