<svg width="19" height="24" viewBox="0 0 19 24" fill="none" xmlns="http://www.w3.org/2000/svg">
<path d="M15.8409 12.3743C15.8735 15.8992 18.9332 17.0723 18.9668 17.0875C18.9408 17.1699 18.4778 18.7594 17.3545 20.4009C16.3841 21.8202 15.3758 23.234 13.7885 23.2633C12.2283 23.2926 11.7274 22.3384 9.9438 22.3384C8.16133 22.3384 7.60403 23.234 6.12731 23.2925C4.59529 23.3511 3.42866 21.7584 2.44959 20.3445C0.45027 17.4507 -1.0785 12.1716 0.973954 8.60663C1.99313 6.83716 3.81573 5.71607 5.79337 5.6868C7.29828 5.65861 8.71754 6.69947 9.63805 6.69947C10.5575 6.69947 12.2825 5.44718 14.0975 5.6315C14.8565 5.66294 16.9891 5.93834 18.3574 7.942C18.2479 8.0103 15.8138 9.42739 15.8409 12.3743ZM12.9092 3.71891C13.7224 2.73443 14.2699 1.36396 14.1203 0C12.9482 0.046622 11.53 0.781731 10.6887 1.76513C9.93513 2.63685 9.27483 4.03117 9.45265 5.36803C10.7602 5.46886 12.096 4.7034 12.9092 3.71891Z" fill="white"/>
</svg>
