<svg width="22" height="22" viewBox="0 0 22 22" fill="none" xmlns="http://www.w3.org/2000/svg">
<path d="M11.0004 1.37768C11.0004 1.37768 16.6738 1.124 19.6817 6.80624H10.5176C10.5176 6.80624 8.78824 6.75069 7.31094 8.84129C6.88654 9.71875 6.43039 10.6226 6.9423 12.404C6.20487 11.1591 3.02734 5.64604 3.02734 5.64604C3.02734 5.64604 5.26866 1.60232 11.0004 1.37768Z" fill="#EF3F36"/>
<path d="M19.3872 15.8028C19.3872 15.8028 16.7692 20.827 10.3293 20.5786C11.1251 19.2069 14.9126 12.6709 14.9126 12.6709C14.9126 12.6709 15.8277 11.2068 14.7482 8.88632C14.1991 8.08023 13.6395 7.23714 11.8359 6.78782C13.2868 6.77468 19.6657 6.78782 19.6657 6.78782C19.6657 6.78782 22.0554 10.7443 19.3872 15.8028Z" fill="#FCD900"/>
<path d="M2.65334 15.8422C2.65334 15.8422 -0.40487 11.0717 3.03259 5.63794C3.82567 7.00965 7.61323 13.5456 7.61323 13.5456C7.61323 13.5456 8.43019 15.0679 10.9844 15.2951C11.9579 15.2238 12.9711 15.163 14.2655 13.8336C13.5519 15.0917 10.3504 20.5889 10.3504 20.5889C10.3504 20.5889 5.71418 20.6735 2.65334 15.8422Z" fill="#61BC5B"/>
<path d="M10.3267 20.6259L11.6157 15.2662C11.6157 15.2662 13.0321 15.1551 14.2205 13.8574C13.483 15.1499 10.3267 20.6259 10.3267 20.6259Z" fill="#5AB055"/>
<path d="M6.68237 11.0611C6.68237 8.69834 8.60536 6.78223 10.9765 6.78223C13.3477 6.78223 15.2707 8.69834 15.2707 11.0611C15.2707 13.4238 13.3477 15.3399 10.9765 15.3399C8.60536 15.3372 6.68237 13.4238 6.68237 11.0611Z" fill="white"/>
<path d="M7.40137 11.0614C7.40137 9.09515 9.00084 7.49878 10.9768 7.49878C12.9502 7.49878 14.5523 9.09254 14.5523 11.0614C14.5523 13.0278 12.9529 14.6242 10.9768 14.6242C9.00345 14.6242 7.40137 13.0278 7.40137 11.0614Z" fill="url(#paint0_linear_10639_78695)"/>
<path d="M19.6631 6.79016L14.3556 8.34155C14.3556 8.34155 13.5546 7.17067 11.8333 6.79016C13.3266 6.7822 19.6631 6.79016 19.6631 6.79016Z" fill="#EACA05"/>
<path d="M6.83886 12.2084C6.09346 10.9213 3.02734 5.646 3.02734 5.646L6.95818 9.52054C6.95818 9.52054 6.55497 10.3478 6.70622 11.5318L6.83886 12.2084Z" fill="#DF3A32"/>
<defs>
<linearGradient id="paint0_linear_10639_78695" x1="10.9767" y1="7.5491" x2="10.9767" y2="14.4097" gradientUnits="userSpaceOnUse">
<stop stop-color="#86BBE5"/>
<stop offset="1" stop-color="#1072BA"/>
</linearGradient>
</defs>
</svg>
