<svg width="35" height="34" viewBox="0 0 35 34" fill="none" xmlns="http://www.w3.org/2000/svg">
<path d="M16 0.238525C18.8067 0.238525 21.1504 2.0703 21.1504 4.38892C21.1504 5.60844 20.4345 6.74656 19.3721 7.51782L19.3701 7.5188C19.2881 7.57633 19.1506 7.70094 19.1504 7.86353C19.1504 8.04997 19.2944 8.18672 19.54 8.23853H23C24.7391 8.23853 26.1504 9.64982 26.1504 11.3889V14.8635C26.1504 15.0733 26.3196 15.2385 26.5254 15.2385C26.6868 15.2383 26.81 15.1004 26.8662 15.0178L26.8672 15.0168C27.6449 13.8947 28.7852 13.2385 30 13.2385C32.3186 13.2385 34.1504 15.5822 34.1504 18.3889C34.1504 21.1956 32.3186 23.5393 30 23.5393C28.7872 23.5393 27.6442 22.8835 26.8672 21.762C26.8429 21.7271 26.7968 21.6691 26.7344 21.6213C26.6724 21.574 26.6016 21.5413 26.5225 21.5413C26.3172 21.5413 26.1504 21.7091 26.1504 21.9143V29.3889C26.1504 31.1261 24.7372 32.5393 23 32.5393H19.5254C18.0488 32.5393 16.8496 31.3401 16.8496 29.8635C16.8497 28.9858 17.3087 28.1543 18.0605 27.6311V27.6301C18.3748 27.4132 18.8496 26.9835 18.8496 26.3889C18.8496 25.9145 18.5482 25.4556 18.0264 25.1077C17.5067 24.7612 16.7865 24.5393 16 24.5393C15.2135 24.5393 14.4933 24.7612 13.9736 25.1077C13.4518 25.4556 13.1504 25.9145 13.1504 26.3889C13.1504 26.9834 13.6218 27.4128 13.9365 27.6272L13.9375 27.6282C14.6938 28.1523 15.1503 28.9867 15.1504 29.8635C15.1504 31.3401 13.9512 32.5393 12.4746 32.5393H5C3.26284 32.5393 1.84961 31.1281 1.84961 29.3889V21.9143C1.84961 20.4378 3.04894 19.2385 4.52246 19.2385C5.39945 19.2385 6.23404 19.697 6.75684 20.4485V20.4495C6.97521 20.7646 7.40555 21.2385 8 21.2385C8.47439 21.2385 8.9333 20.9371 9.28125 20.4153C9.62777 19.8956 9.84961 19.1754 9.84961 18.3889C9.84961 17.6024 9.62777 16.8823 9.28125 16.3625C8.9333 15.8407 8.47439 15.5393 8 15.5393C7.4794 15.5393 7.08504 15.9008 6.84961 16.2024L6.75879 16.3264C6.2352 17.0829 5.39998 17.5393 4.52246 17.5393C3.04905 17.5393 1.84963 16.3405 1.84961 14.8665V11.3889C1.84961 9.64976 3.26284 8.23853 5 8.23853L12.4775 8.23657L12.5527 8.22876C12.7221 8.19386 12.8496 8.04301 12.8496 7.86353C12.8494 7.70202 12.7119 7.57917 12.6279 7.52075V7.51978C11.4458 6.74061 10.8496 5.60037 10.8496 4.38892C10.8496 2.0703 13.1933 0.238525 16 0.238525ZM16 2.53931C15.2135 2.53931 14.4933 2.76115 13.9736 3.10767C13.4518 3.45561 13.1504 3.91453 13.1504 4.38892C13.1504 4.98351 13.6221 5.41366 13.9365 5.6272L13.9375 5.62817C14.6938 6.15227 15.1503 6.98674 15.1504 7.86353C15.1504 9.34012 13.9512 10.5393 12.4746 10.5393H5C4.53115 10.5393 4.15039 10.9216 4.15039 11.3889V14.8635C4.15039 15.0743 4.31708 15.2385 4.52246 15.2385C4.60096 15.2385 4.67155 15.2069 4.7334 15.1594C4.79562 15.1116 4.84166 15.0534 4.86621 15.0178L4.86719 15.0168C5.6449 13.8947 6.78518 13.2385 8 13.2385C10.3186 13.2385 12.1504 15.5822 12.1504 18.3889C12.1504 21.1956 10.3186 23.5393 8 23.5393C6.78369 23.5393 5.64465 22.8826 4.86719 21.7581C4.8428 21.7232 4.79646 21.6659 4.73438 21.6184C4.67247 21.5711 4.60158 21.5393 4.52246 21.5393C4.31824 21.5393 4.15039 21.7086 4.15039 21.9143V29.3889C4.15039 29.8563 4.53115 30.2385 5 30.2385H12.4746C12.6855 30.2385 12.8496 30.0744 12.8496 29.8635C12.8494 29.702 12.7119 29.5792 12.6279 29.5208V29.5198C11.4458 28.7406 10.8496 27.6004 10.8496 26.3889C10.8496 24.0703 13.1933 22.2385 16 22.2385C18.8067 22.2385 21.1504 24.0703 21.1504 26.3889C21.1504 27.6052 20.4346 28.7465 19.3721 29.5178L19.3701 29.5188C19.2881 29.5763 19.1506 29.7009 19.1504 29.8635C19.1504 30.0737 19.3196 30.2385 19.5225 30.2385H23C23.4689 30.2385 23.8496 29.8578 23.8496 29.3889V21.9143C23.8496 20.4377 25.0488 19.2385 26.5254 19.2385C27.3965 19.2387 28.2347 19.6971 28.7568 20.4485V20.4495C28.9752 20.7646 29.4055 21.2385 30 21.2385C30.4731 21.2385 30.932 20.9372 31.2803 20.4153C31.6271 19.8955 31.8496 19.1753 31.8496 18.3889C31.8496 17.6024 31.6278 16.8823 31.2812 16.3625C30.9333 15.8407 30.4744 15.5393 30 15.5393C29.4055 15.5393 28.9761 16.0108 28.7617 16.3254L28.7607 16.3264C28.2372 17.0828 27.4028 17.5392 26.5254 17.5393C25.0489 17.5393 23.8496 16.3406 23.8496 14.8665V11.3889C23.8496 10.9218 23.4672 10.5393 23 10.5393H19.5254C18.0488 10.5393 16.8496 9.34012 16.8496 7.86353C16.8497 6.98584 17.3087 6.15433 18.0605 5.6311V5.63013C18.3748 5.4132 18.8496 4.98346 18.8496 4.38892C18.8496 3.91453 18.5482 3.45561 18.0264 3.10767C17.5067 2.76115 16.7865 2.53931 16 2.53931Z" fill="url(#paint0_linear_10245_7119)" stroke="url(#paint1_linear_10245_7119)" stroke-width="0.3"/>
<defs>
<linearGradient id="paint0_linear_10245_7119" x1="18" y1="0.388916" x2="18" y2="32.3889" gradientUnits="userSpaceOnUse">
<stop stop-color="#25CF60"/>
<stop offset="1" stop-color="#568DF3"/>
</linearGradient>
<linearGradient id="paint1_linear_10245_7119" x1="18" y1="0.388916" x2="18" y2="32.3889" gradientUnits="userSpaceOnUse">
<stop stop-color="#25CF60"/>
<stop offset="1" stop-color="#568DF3"/>
</linearGradient>
</defs>
</svg>
